<?xml version="1.0" encoding="UTF-8" standalone="no"?>
<!DOCTYPE svg PUBLIC "-//W3C//DTD SVG 1.1//EN" "http://www.w3.org/Graphics/SVG/1.1/DTD/svg11.dtd">
<svg width="100%" height="100%" viewBox="0 0 115 115" version="1.1" xmlns="http://www.w3.org/2000/svg" xmlns:xlink="http://www.w3.org/1999/xlink" xml:space="preserve" xmlns:serif="http://www.serif.com/" style="fill-rule:evenodd;clip-rule:evenodd;stroke-linejoin:round;stroke-miterlimit:2;">
    <g>
        <rect x="0" y="0" width="114.795" height="114.795" style="fill:white;fill-opacity:0;"/>
        <path d="M18.994,114.795L95.752,114.795C108.398,114.795 114.795,108.398 114.795,95.996L114.795,18.848C114.795,6.396 108.398,0 95.752,0L18.994,0C6.396,0 0,6.348 0,18.848L0,95.996C0,108.496 6.396,114.795 18.994,114.795ZM19.19,106.152C12.354,106.152 8.643,102.539 8.643,95.508L8.643,19.287C8.643,12.305 12.354,8.643 19.19,8.643L95.606,8.643C102.295,8.643 106.152,12.305 106.152,19.287L106.152,95.508C106.152,102.539 102.295,106.152 95.606,106.152L19.19,106.152Z" style="fill:white;fill-rule:nonzero;"/>
        <path d="M50.586,87.256C52.393,87.256 53.857,86.426 54.932,84.766L84.863,37.842C85.498,36.865 86.133,35.645 86.133,34.473C86.133,32.08 83.984,30.469 81.738,30.469C80.371,30.469 79.004,31.348 78.027,32.91L50.391,76.807L36.621,59.57C35.352,57.91 34.131,57.422 32.666,57.422C30.322,57.422 28.467,59.326 28.467,61.719C28.467,62.891 28.955,64.063 29.736,65.088L46.045,84.766C47.412,86.523 48.779,87.256 50.586,87.256Z" style="fill:white;fill-rule:nonzero;"/>
    </g>
</svg>
